# xmcd
#
# Track frame offsets:
# 150
# 11342
# 21519
# 34012
# 47202
# 60979
# 72127
# 84852
# 97930
# 112871
# 125292
# 138356
# 150659
# 163385
# 177971
# 190398
# 204841
# 217895
# 230576
# 243563
# 255853
# 270087
# 283333
# 296405
# 311299
#
# Disc length: 4351 seconds
#
# Revision: 1
# Processed by: cddbd v1.4PL0 Copyright (c) Steve Scherf et al.
# Submitted via: inCDius 2.0b9
#
DISCID=4a10fd19
DTITLE=Muddy Waters - The King of Chicago Blues - The Essential Early Muddy Wa
DTITLE=ters [CD2]
DYEAR=1900
DGENRE=
TTITLE0=Muddy Jumps One
TTITLE1=Blue Baby
TTITLE2=I Want My Baby
TTITLE3=Florida Hurricane
TTITLE4=So Nice And Kind
TTITLE5=Locked Out Boogie
TTITLE6=Shady Grove Blues
TTITLE7=Big Town Playboy
TTITLE8=Shelby County Blues
TTITLE9=Bad Acting Woman
TTITLE10=I Just Keep Loving Her
TTITLE11=Boll Weevil
TTITLE12=Rollin' And Tumblin' (Part1)
TTITLE13=Rollin' And Tumblin' (Part2)
TTITLE14=Red Headed Woman
TTITLE15=Muskadine Blues
TTITLE16=Moonshine Blues
TTITLE17=That's All Right
TTITLE18=Ludella
TTITLE19=Goin' Away Baby
TTITLE20=Today, Today Blues
TTITLE21=The World Is In A Tangle
TTITLE22=She Loves Another Man
TTITLE23=Money, Marbles And Chalk
TTITLE24=Chance To Love
EXTD=2002. 1-5 1948 - 6-9 1949 - 10-21 1050 - 22-25 1951
EXTT0=Muddy Waters and Leroy Foster
EXTT1=Sunnyland Slim and Muddy Waters
EXTT2=Sunnyland Slim and Muddy Waters
EXTT3=St Louis Jimmy w/Muddy Waters and his Blues Combo
EXTT4=St Louis Jimmy w/Muddy Waters and his Blues Combo
EXTT5=Leroy Foster and Muddy Waters
EXTT6=Leroy Foster and Muddy Waters
EXTT7=Little Johnny
EXTT8=Little Johnny
EXTT9=Little Walter Trio
EXTT10=Little Walter Trio
EXTT11=Baby Face Leroy Trio
EXTT12=Baby Face Leroy Trio
EXTT13=Baby Face Leroy Trio
EXTT14=Baby Face Leroy Trio
EXTT15=Little Walter Trio
EXTT16=Little Walter Trio
EXTT17=Jimmy Rogers
EXTT18=Jimmy Rogers
EXTT19=Jimmy Rogers
EXTT20=Jimmy Rogers
EXTT21=Jimmy Rogers
EXTT22=Jimmy Rogers
EXTT23=Jimmy Rogers
EXTT24=Jimmy Rogers
PLAYORDER=
